grf
version=1
nRows=17
nColumns=37
inDegrees=no
endheader
time	ground_force_1_vx	ground_force_1_vy	ground_force_1_vz	ground_force_1_px	ground_force_1_py	ground_force_1_pz	ground_moment_1_mx	ground_moment_1_my	ground_moment_1_mz	ground_force_2_vx	ground_force_2_vy	ground_force_2_vz	ground_force_2_px	ground_force_2_py	ground_force_2_pz	ground_moment_2_mx	ground_moment_2_my	ground_moment_2_mz	ground_force_3_vx	ground_force_3_vy	ground_force_3_vz	ground_force_3_px	ground_force_3_py	ground_force_3_pz	ground_moment_3_mx	ground_moment_3_my	ground_moment_3_mz	ground_force_4_vx	ground_force_4_vy	ground_force_4_vz	ground_force_4_px	ground_force_4_py	ground_force_4_pz	ground_moment_4_mx	ground_moment_4_my	ground_moment_4_mz
      5.94000000	      0.00000000	     -0.00000000	      0.00000000	      0.00000000	      0.00000000	      0.00000000	      0.00000000	      0.00000000	      0.00000000	     13.79669189	    119.24816895	   -513.55664062	   -236.65515458	  -1190.91120441	      0.00000000	      0.00000000	      0.00000000	    208.34520981	     13.38709551	   -130.27447627	   -520.96655273	   -224.46467952	   -524.31549310	      0.00000000	      0.00000000	     -0.00000000	   -851.34018649	      0.00000000	     -0.00000000	      0.00000000	      0.00000000	      0.00000000	      0.00000000	      0.00000000	      0.00000000	      0.00000000
      5.95000000	      0.00000000	     -0.00000000	      0.00000000	      0.00000000	      0.00000000	      0.00000000	      0.00000000	      0.00000000	      0.00000000	     14.24834156	    117.11365509	   -502.80914307	   -238.22154218	  -1188.60994753	      0.00000000	      0.00000000	      0.00000000	    311.23676033	     14.24905316	   -129.07647830	   -512.87084961	   -225.48315018	   -524.89329781	      0.00000000	      0.00000000	     -0.00000000	   -866.57021257	      0.00000000	     -0.00000000	      0.00000000	      0.00000000	      0.00000000	      0.00000000	      0.00000000	      0.00000000	      0.00000000
      5.96000000	      0.00000000	     -0.00000000	      0.00000000	      0.00000000	      0.00000000	      0.00000000	      0.00000000	      0.00000000	      0.00000000	     14.37999058	    114.67295074	   -496.67251587	   -238.88062358	  -1187.79964117	      0.00000000	      0.00000000	      0.00000000	     82.64678720	     14.08811407	   -127.69635133	   -505.35537720	   -225.82125138	   -525.27350491	      0.00000000	      0.00000000	     -0.00000000	   -687.71750688	      0.00000000	     -0.00000000	      0.00000000	      0.00000000	      0.00000000	      0.00000000	      0.00000000	      0.00000000	      0.00000000
      5.97000000	      0.00000000	     -0.00000000	      0.00000000	      0.00000000	      0.00000000	      0.00000000	      0.00000000	      0.00000000	      0.00000000	     13.76448917	    112.38475037	   -489.79177856	   -240.14252085	  -1187.71235653	      0.00000000	      0.00000000	      0.00000000	     73.76682114	     13.67003488	   -125.53361631	   -499.63598633	   -226.71176792	   -525.16267220	      0.00000000	      0.00000000	     -0.00000000	   -651.11102863	      0.00000000	     -0.00000000	      0.00000000	      0.00000000	      0.00000000	      0.00000000	      0.00000000	      0.00000000	      0.00000000
      5.98000000	      0.00000000	     -0.00000000	      0.00000000	      0.00000000	      0.00000000	      0.00000000	      0.00000000	      0.00000000	      0.00000000	     12.03460598	    109.55886841	   -479.89746094	   -240.20283467	  -1187.78954855	      0.00000000	      0.00000000	     -0.00000000	    -12.38580413	     12.34820146	   -123.30574144	   -492.37231445	   -226.14834072	   -524.80032400	      0.00000000	      0.00000000	     -0.00000000	   -658.80805402	      0.00000000	     -0.00000000	      0.00000000	      0.00000000	      0.00000000	      0.00000000	      0.00000000	      0.00000000	      0.00000000
      5.99000000	      0.00000000	     -0.00000000	      0.00000000	      0.00000000	      0.00000000	      0.00000000	      0.00000000	      0.00000000	      0.00000000	     11.24052429	    107.25958252	   -473.19036865	   -240.23501593	  -1187.23094925	      0.00000000	      0.00000000	     -0.00000000	   -183.75357530	     10.77813421	   -121.53942965	   -484.27331543	   -225.55303109	   -524.09320601	      0.00000000	      0.00000000	     -0.00000000	   -518.53871396	      0.00000000	     -0.00000000	      0.00000000	      0.00000000	      0.00000000	      0.00000000	      0.00000000	      0.00000000	      0.00000000
      6.00000000	      0.00000000	     -0.00000000	      0.00000000	      0.00000000	      0.00000000	      0.00000000	      0.00000000	      0.00000000	      0.00000000	     10.66123581	    104.62219238	   -462.77304077	   -240.49525160	  -1186.92853327	      0.00000000	      0.00000000	     -0.00000000	   -180.23695526	      9.61588479	   -119.88751305	   -477.32543945	   -224.92450799	   -524.19570863	      0.00000000	      0.00000000	     -0.00000000	   -543.69101432	      0.00000000	     -0.00000000	      0.00000000	      0.00000000	      0.00000000	      0.00000000	      0.00000000	      0.00000000	      0.00000000
      6.01000000	      0.00000000	     -0.00000000	      0.00000000	      0.00000000	      0.00000000	      0.00000000	      0.00000000	      0.00000000	      0.00000000	      9.94568634	    101.64533997	   -456.90582275	   -241.02926484	  -1187.05235678	      0.00000000	      0.00000000	      0.00000000	      0.03000628	      8.81863806	   -117.60131913	   -471.39038086	   -224.58261848	   -524.08383130	      0.00000000	      0.00000000	     -0.00000000	   -525.92888762	      0.00000000	     -0.00000000	      0.00000000	      0.00000000	      0.00000000	      0.00000000	      0.00000000	      0.00000000	      0.00000000
      6.02000000	      0.00000000	     -0.00000000	      0.00000000	      0.00000000	      0.00000000	      0.00000000	      0.00000000	      0.00000000	      0.00000000	      8.77982998	     99.71833801	   -449.46578979	   -240.61045587	  -1186.79743069	      0.00000000	      0.00000000	     -0.00000000	   -295.72298786	      7.34460202	   -115.60393588	   -468.83828735	   -225.17779895	   -523.89385557	      0.00000000	      0.00000000	     -0.00000000	   -619.90580892	      0.00000000	     -0.00000000	      0.00000000	      0.00000000	      0.00000000	      0.00000000	      0.00000000	      0.00000000	      0.00000000
      6.03000000	      0.00000000	     -0.00000000	      0.00000000	      0.00000000	      0.00000000	      0.00000000	      0.00000000	      0.00000000	      0.00000000	      7.57347155	     98.12315369	   -444.96942139	   -240.45492779	  -1187.63938898	      0.00000000	      0.00000000	     -0.00000000	   -167.63122313	      5.70541870	   -113.24694874	   -464.16912842	   -225.19697529	   -524.64841842	      0.00000000	      0.00000000	     -0.00000000	   -624.08656784	      0.00000000	     -0.00000000	      0.00000000	      0.00000000	      0.00000000	      0.00000000	      0.00000000	      0.00000000	      0.00000000
      6.04000000	      0.00000000	     -0.00000000	      0.00000000	      0.00000000	      0.00000000	      0.00000000	      0.00000000	      0.00000000	      0.00000000	      5.99615335	     97.38146210	   -440.58001709	   -239.29136881	  -1187.71466017	      0.00000000	      0.00000000	     -0.00000000	   -153.53496148	      5.76619133	   -110.86788228	   -459.77996826	   -225.72923095	   -524.84189426	      0.00000000	      0.00000000	     -0.00000000	   -758.31663796	      0.00000000	     -0.00000000	      0.00000000	      0.00000000	      0.00000000	      0.00000000	      0.00000000	      0.00000000	      0.00000000
      6.05000000	      0.00000000	     -0.00000000	      0.00000000	      0.00000000	      0.00000000	      0.00000000	      0.00000000	      0.00000000	      0.00000000	      5.63959312	     96.20067596	   -432.76025391	   -237.78626256	  -1187.20979518	      0.00000000	      0.00000000	     -0.00000000	   -263.96975292	      5.17388060	   -108.85987899	   -454.86935425	   -225.56780874	   -525.61110572	      0.00000000	      0.00000000	     -0.00000000	   -680.94928018	      0.00000000	     -0.00000000	      0.00000000	      0.00000000	      0.00000000	      0.00000000	      0.00000000	      0.00000000	      0.00000000
      6.06000000	      0.00000000	     -0.00000000	      0.00000000	      0.00000000	      0.00000000	      0.00000000	      0.00000000	      0.00000000	      0.00000000	      5.69968510	     94.58804321	   -426.79635620	   -236.67481319	  -1187.83176212	      0.00000000	      0.00000000	     -0.00000000	   -250.43953389	      4.63392941	   -107.33975260	   -450.48175049	   -225.67213957	   -525.69551531	      0.00000000	      0.00000000	     -0.00000000	   -808.04680580	      0.00000000	     -0.00000000	      0.00000000	      0.00000000	      0.00000000	      0.00000000	      0.00000000	      0.00000000	      0.00000000
      6.07000000	      0.00000000	     -0.00000000	      0.00000000	      0.00000000	      0.00000000	      0.00000000	      0.00000000	      0.00000000	      0.00000000	      4.61910152	     93.70575714	   -422.95263672	   -237.23130845	  -1187.23506160	      0.00000000	      0.00000000	     -0.00000000	   -215.74811624	      4.13020828	   -106.03532446	   -448.00009155	   -225.82868742	   -526.21434638	      0.00000000	      0.00000000	     -0.00000000	   -760.09372637	      0.00000000	     -0.00000000	      0.00000000	      0.00000000	      0.00000000	      0.00000000	      0.00000000	      0.00000000	      0.00000000
      6.08000000	      0.00000000	     -0.00000000	      0.00000000	      0.00000000	      0.00000000	      0.00000000	      0.00000000	      0.00000000	      0.00000000	      4.67899418	     92.47824097	   -416.35952759	   -237.34179221	  -1187.51850477	      0.00000000	      0.00000000	     -0.00000000	     -4.23884710	      3.96227810	   -103.94476353	   -441.40554810	   -225.94576501	   -526.16636653	      0.00000000	      0.00000000	     -0.00000000	   -871.11933449	      0.00000000	     -0.00000000	      0.00000000	      0.00000000	      0.00000000	      0.00000000	      0.00000000	      0.00000000	      0.00000000
      6.09000000	      0.00000000	     -0.00000000	      0.00000000	      0.00000000	      0.00000000	      0.00000000	      0.00000000	      0.00000000	      0.00000000	      4.77675581	     92.18910217	   -409.29537964	   -236.51227998	  -1188.31202253	      0.00000000	      0.00000000	      0.00000000	    208.90645482	      3.20361886	   -102.54147367	   -436.82821655	   -225.37355127	   -525.97340513	      0.00000000	      0.00000000	     -0.00000000	   -914.06720490	      0.00000000	     -0.00000000	      0.00000000	      0.00000000	      0.00000000	      0.00000000	      0.00000000	      0.00000000	      0.00000000
      6.10000000	      0.00000000	     -0.00000000	      0.00000000	      0.00000000	      0.00000000	      0.00000000	      0.00000000	      0.00000000	      0.00000000	      2.55627942	     91.64658356	   -405.84445190	   -234.77450739	  -1188.81784806	      0.00000000	      0.00000000	      0.00000000	     92.50017910	      3.00599662	   -101.81466701	   -432.75885010	   -225.05744544	   -526.75847433	      0.00000000	      0.00000000	     -0.00000000	   -900.47471121	      0.00000000	     -0.00000000	      0.00000000	      0.00000000	      0.00000000	      0.00000000	      0.00000000	      0.00000000	      0.00000000
